<svg width="500" height="500" viewBox="0 0 500 500" fill="none" xmlns="http://www.w3.org/2000/svg">
<g clip-path="url(#clip0_311_28)">
<path d="M447.885 52.2422C400.713 5.25196 332.886 0 250 0C167.01 0 99.0801 5.3125 51.9277 52.4297C4.78222 99.5274 0 167.348 0 250.243C0 333.152 4.78222 400.993 51.9473 448.107C99.0967 495.231 167.019 500.001 250 500.001C332.982 500.001 400.893 495.231 448.042 448.107C495.204 400.984 500 333.152 500 250.243C500 167.241 495.152 99.3477 447.885 52.2422Z" fill="url(#paint0_linear_311_28)"/>
<path d="M249.181 362.306C263.384 368.826 290.081 367.738 320.362 372.633C350.643 377.528 372.963 414.916 379.007 392.793C387.508 361.677 366.483 303.432 348.218 255.796C347.576 254.12 366.882 253.122 379.007 229.989C386.187 216.292 386.039 182.027 390.822 170.093C405.698 132.986 388.261 142.225 386.597 138.425C385.57 136.081 392.238 100.568 381.669 117.906C379.44 121.562 359.204 175.564 354.48 185.613C343.884 208.152 334.464 210.255 333.827 208.552C329.434 203.076 326.47 195.429 324.937 185.613C317.639 138.89 286.685 100 239.498 100C192.312 100 154.06 138.33 154.06 185.613C151.4 193.4 150.069 201.046 150.069 208.552C150.069 211.64 131.991 226.261 122.732 236.301C107.97 252.31 103.152 269.251 103.045 274.518C102.984 277.711 105.373 306.912 118.27 300.068C119.153 299.6 120.502 296.319 122.34 291.883C124.892 285.723 128.363 277.015 132.863 270.843C139.334 261.969 149.058 259.575 150.069 259.592C149.863 288.709 149.863 304.799 150.069 307.863C151.848 334.242 157.537 342.707 171.412 362.306C180.46 375.088 193.813 380.333 207.367 372.633C212.947 369.464 228.856 352.975 249.181 362.306Z" fill="url(#paint1_linear_311_28)"/>
<path d="M274.813 210.541C293.687 210.541 308.988 195.043 308.988 175.926C308.988 156.808 293.687 141.311 274.813 141.311C255.938 141.311 240.637 156.808 240.637 175.926C240.637 195.043 255.938 210.541 274.813 210.541Z" fill="white"/>
<path d="M274.346 200.161C286.123 196.334 292.993 184.997 289.693 174.838C286.392 164.679 274.169 159.546 262.393 163.372C250.616 167.199 243.745 178.536 247.046 188.695C250.347 198.854 262.57 203.987 274.346 200.161Z" fill="#160B0D"/>
<path d="M280.616 180.912C283.211 180.912 285.315 178.807 285.315 176.211C285.315 173.615 283.211 171.51 280.616 171.51C278.02 171.51 275.917 173.615 275.917 176.211C275.917 178.807 278.02 180.912 280.616 180.912Z" fill="white"/>
<path d="M226.789 290.623C242.312 309.122 264.714 315.88 276.825 305.718C288.936 295.556 286.17 272.321 270.647 253.822C255.125 235.322 232.723 228.564 220.612 238.727C208.501 248.889 211.267 272.124 226.789 290.623Z" fill="white"/>
<path d="M188.235 210.541C194.055 210.541 198.773 206.013 198.773 200.427C198.773 194.842 194.055 190.313 188.235 190.313C182.416 190.313 177.698 194.842 177.698 200.427C177.698 206.013 182.416 210.541 188.235 210.541Z" fill="white"/>
<path d="M192.65 199.715C193.829 199.715 194.786 198.758 194.786 197.578C194.786 196.398 193.829 195.442 192.65 195.442C191.47 195.442 190.514 196.398 190.514 197.578C190.514 198.758 191.47 199.715 192.65 199.715Z" fill="black"/>
</g>
<defs>
<linearGradient id="paint0_linear_311_28" x1="275.829" y1="-62.5703" x2="275.829" y2="442.481" gradientUnits="userSpaceOnUse">
<stop stop-color="#FF96D5"/>
<stop offset="1" stop-color="#FFD390"/>
</linearGradient>
<linearGradient id="paint1_linear_311_28" x1="249.915" y1="100" x2="249.915" y2="399.736" gradientUnits="userSpaceOnUse">
<stop stop-color="#0C0C02"/>
<stop offset="1" stop-color="#43003E"/>
</linearGradient>
<clipPath id="clip0_311_28">
<rect width="500" height="500" fill="white"/>
</clipPath>
</defs>
</svg>
