<svg width="1600" height="800" viewBox="0 0 1600 800" fill="none" xmlns="http://www.w3.org/2000/svg">
<g clip-path="url(#clip0_14414_46772)">
<rect width="1600" height="800" fill="url(#paint0_linear_14414_46772)"/>
<g opacity="0.3">
<path d="M-48.7074 655.078C-28.446 675.34 -20.9299 708.645 0.551679 724.825C23.7315 742.288 58.7902 738.038 82.2068 750.437C108.335 764.236 128.447 783.872 153.411 790.909C184.482 799.646 212.095 799.862 238.605 797.368C270.179 794.398 312.004 804.419 332.283 784.139C352.563 763.86 350.406 722.752 353.376 691.179C355.84 664.698 333.344 640.355 324.577 609.314C317.54 584.35 335.759 547.836 321.93 521.678C309.562 498.232 271.282 489.91 253.82 466.79C237.669 445.338 239.683 407.21 219.392 386.919C199.101 366.628 171.752 354.407 150.271 338.226C127.091 320.764 95.1888 321.142 71.7721 308.744C45.6444 294.944 32.674 250.706 7.70997 243.669C-23.361 234.932 -57.6396 258.544 -84.0903 261.038C-115.605 264.008 -142.412 268.885 -162.692 289.165C-182.971 309.444 -199.525 335.116 -202.495 366.69C-204.96 393.171 -184.428 419.419 -175.692 450.49C-168.655 475.454 -175.169 507.176 -161.399 533.334C-149.031 556.78 -124.183 573.826 -106.721 597.006C-90.5696 618.457 -68.9986 634.847 -48.7372 655.108L-48.7074 655.078Z" stroke="white" stroke-linecap="round" stroke-linejoin="round"/>
<path d="M-72.5517 678.923C-52.2902 699.184 -44.7533 732.468 -23.276 748.653C-0.100863 766.12 34.9262 761.902 58.3339 774.31C84.4517 788.119 104.564 807.755 129.513 814.807C160.566 823.561 188.157 823.8 214.644 821.329C246.19 818.387 287.989 828.434 308.236 808.187C328.483 787.94 326.295 746.864 329.236 715.318C331.678 688.861 309.179 664.519 300.395 633.496C293.343 608.547 311.519 572.076 297.68 545.929C285.302 522.491 247.047 514.145 229.58 491.03C213.425 469.582 215.407 431.487 195.116 411.196C174.824 390.905 147.488 378.672 126.011 362.486C102.836 345.02 70.9591 345.372 47.5514 332.964C21.4336 319.155 8.43803 274.942 -16.5115 267.89C-47.5645 259.136 -81.7965 282.701 -108.224 285.172C-139.71 288.114 -166.492 292.965 -186.739 313.212C-206.986 333.459 -223.506 359.097 -226.448 390.643C-228.889 417.1 -208.353 443.344 -199.598 474.397C-192.547 499.347 -199.06 531.068 -185.251 557.185C-172.873 580.623 -148.032 597.675 -130.565 620.85C-114.41 642.297 -92.8428 658.691 -72.5814 678.952L-72.5517 678.923Z" stroke="white" stroke-linecap="round" stroke-linejoin="round"/>
<path d="M-96.8114 703.182C-76.55 723.444 -69.0339 756.749 -47.5523 772.929C-24.3725 790.392 10.6862 786.142 34.1028 798.541C60.2305 812.34 80.3428 831.976 105.307 839.013C136.378 847.75 163.991 847.966 190.501 845.472C222.075 842.502 263.9 852.523 284.179 832.243C304.459 811.964 302.302 770.856 305.272 739.283C307.736 712.802 285.24 688.459 276.473 657.418C269.436 632.454 287.655 595.94 273.826 569.782C261.458 546.336 223.178 538.014 205.716 514.894C189.565 493.442 191.579 455.314 171.288 435.023C150.997 414.732 123.648 402.511 102.167 386.33C78.9871 368.868 47.0848 369.246 23.6681 356.848C-2.45957 343.048 -15.43 298.81 -40.394 291.773C-71.465 283.036 -105.744 306.648 -132.194 309.142C-163.738 312.142 -190.516 316.989 -210.796 337.269C-231.075 357.548 -247.629 383.22 -250.599 414.794C-253.064 441.275 -232.532 467.523 -223.796 498.594C-216.759 523.558 -223.273 555.28 -209.503 581.438C-197.135 604.884 -172.287 621.93 -154.825 645.11C-138.674 666.561 -117.103 682.951 -96.8412 703.212L-96.8114 703.182Z" stroke="white" stroke-linecap="round" stroke-linejoin="round"/>
<path d="M-120.655 727.026C-100.394 747.288 -92.8568 780.571 -71.3796 796.757C-48.2044 814.224 -13.1773 810.006 10.2304 822.413C36.3482 836.222 56.46 855.858 81.4096 862.91C112.463 871.665 140.054 871.903 166.54 869.432C198.087 866.491 239.886 876.537 260.132 856.29C280.379 836.044 278.191 794.968 281.133 763.421C283.574 736.964 261.076 712.623 252.291 681.6C245.24 656.65 263.415 620.18 249.576 594.032C237.199 570.595 198.943 562.249 181.476 539.133C165.321 517.686 167.303 479.591 147.012 459.299C126.721 439.008 99.3844 426.775 77.9072 410.59C54.732 393.123 22.8556 393.475 -0.552097 381.068C-26.6699 367.259 -39.6655 323.046 -64.6151 315.994C-95.668 307.239 -129.9 330.804 -156.327 333.275C-187.844 336.247 -214.596 341.069 -234.842 361.316C-255.089 381.562 -271.61 407.2 -274.551 438.746C-276.993 465.204 -256.457 491.448 -247.702 522.501C-240.65 547.45 -247.164 579.171 -233.354 605.289C-220.977 628.726 -196.135 645.778 -178.668 668.953C-162.513 690.401 -140.946 706.794 -120.685 727.056L-120.655 727.026Z" stroke="white" stroke-linecap="round" stroke-linejoin="round"/>
<path d="M-144.915 751.286C-124.654 771.547 -117.137 804.852 -95.6558 821.033C-72.476 838.495 -37.4173 834.246 -14.0007 846.644C12.127 860.443 32.2393 880.079 57.2033 887.116C88.2743 895.853 115.887 896.07 142.398 893.575C173.972 890.606 215.796 900.626 236.076 880.347C256.355 860.067 254.199 818.96 257.168 787.386C259.633 760.906 237.136 736.563 228.37 705.521C221.332 680.557 239.552 644.043 225.723 617.886C213.354 594.439 175.075 586.117 157.613 562.997C141.461 541.545 143.476 503.418 123.185 483.127C102.893 462.835 75.545 450.615 54.0634 434.434C30.8836 416.972 -1.01876 417.35 -24.4354 404.951C-50.5631 391.152 -63.5335 346.914 -88.4976 339.876C-119.569 331.14 -153.847 354.751 -180.298 357.246C-211.842 360.245 -238.62 365.093 -258.899 385.372C-279.178 405.652 -295.733 431.324 -298.702 462.898C-301.167 489.378 -280.636 515.627 -271.899 546.698C-264.862 571.662 -271.406 603.414 -257.607 629.541C-245.238 652.988 -220.39 670.033 -202.928 693.213C-186.777 714.665 -165.206 731.054 -144.945 751.316L-144.915 751.286Z" stroke="white" stroke-linecap="round" stroke-linejoin="round"/>
<path d="M-114.378 720.749C-94.1169 741.011 -86.5592 774.274 -65.0862 790.463C-41.9156 807.935 -6.92029 803.749 16.4786 816.165C42.5864 829.984 62.6979 849.621 87.633 856.687C118.668 865.459 146.237 865.72 172.7 863.272C204.219 860.359 245.992 870.431 266.206 850.217C286.42 830.003 284.201 788.958 287.114 757.44C289.532 731.006 267.033 706.666 258.23 675.661C251.164 650.726 269.295 614.3 255.446 588.162C243.06 564.733 204.829 556.363 187.357 533.252C171.198 511.809 173.148 473.746 152.856 453.455C132.565 433.164 105.241 420.919 83.768 404.729C60.5975 387.258 28.7471 387.584 5.34829 375.167C-20.7595 361.348 -33.7804 317.16 -58.7155 310.094C-89.7504 301.322 -123.936 324.84 -150.34 327.288C-181.828 330.231 -208.555 335.028 -228.769 355.242C-248.983 375.456 -265.469 401.06 -268.383 432.578C-270.801 459.012 -250.261 485.251 -241.488 516.286C-234.422 541.222 -240.904 572.911 -227.085 599.019C-214.698 622.448 -189.863 639.506 -172.392 662.677C-156.232 684.12 -134.669 700.518 -114.408 720.779L-114.378 720.749Z" stroke="white" stroke-linecap="round" stroke-linejoin="round"/>
<path d="M-138.189 744.56C-117.927 764.821 -110.39 798.105 -88.9132 814.29C-65.7381 831.757 -30.711 827.539 -7.30328 839.947C18.8145 853.756 38.9264 873.392 63.8759 880.444C94.9289 889.198 122.52 889.437 149.007 886.966C180.553 884.024 222.352 894.071 242.599 873.824C262.845 853.577 260.657 812.501 263.599 780.955C266.04 754.498 243.542 730.157 234.758 699.133C227.706 674.184 245.881 637.714 232.042 611.566C219.665 588.129 181.41 579.783 163.943 556.667C147.787 535.219 149.77 497.124 129.478 476.833C109.187 456.542 81.8508 444.309 60.3735 428.124C37.1983 410.657 5.32197 411.009 -18.0858 398.601C-44.2035 384.792 -57.1992 340.579 -82.1487 333.528C-113.202 324.773 -147.434 348.338 -173.861 350.809C-205.377 353.78 -232.129 358.603 -252.376 378.849C-272.623 399.096 -289.143 424.734 -292.085 456.28C-294.526 482.737 -273.99 508.981 -265.236 540.034C-258.184 564.984 -264.697 596.705 -250.888 622.822C-238.511 646.26 -213.669 663.312 -196.202 686.487C-180.047 707.935 -158.48 724.328 -138.219 744.59L-138.189 744.56Z" stroke="white" stroke-linecap="round" stroke-linejoin="round"/>
<path d="M-162.448 768.819C-142.187 789.081 -134.671 822.385 -113.189 838.566C-90.0092 856.028 -54.9505 851.779 -31.5339 864.177C-5.40618 877.977 14.7061 897.612 39.6701 904.65C70.7411 913.386 98.3542 913.603 124.864 911.108C156.438 908.139 198.263 918.16 218.543 897.88C238.822 877.601 236.665 836.493 239.635 804.919C242.1 778.439 219.603 754.096 210.836 723.055C203.799 698.091 222.019 661.576 208.19 635.419C195.821 611.972 157.542 603.651 140.079 580.53C123.928 559.079 125.943 520.951 105.652 500.66C85.3603 480.369 58.0118 468.148 36.5302 451.967C13.3504 434.505 -18.5519 434.883 -41.9686 422.484C-68.0963 408.685 -81.0667 364.447 -106.031 357.41C-137.102 348.673 -171.38 372.284 -197.831 374.779C-229.375 377.778 -256.153 382.626 -276.432 402.905C-296.712 423.185 -313.266 448.857 -316.236 480.431C-318.7 506.911 -298.169 533.16 -289.432 564.231C-282.395 589.195 -288.909 620.917 -275.14 647.074C-262.771 670.521 -237.924 687.567 -220.461 710.746C-204.31 732.198 -182.739 748.587 -162.478 768.849L-162.448 768.819Z" stroke="white" stroke-linecap="round" stroke-linejoin="round"/>
</g>
<g opacity="0.3">
<path d="M1366.98 269.601C1388.93 288.019 1399.32 320.542 1422.13 334.789C1446.75 350.164 1481.3 342.876 1505.71 353.186C1532.94 364.656 1554.69 382.464 1580.17 387.298C1611.88 393.294 1639.41 391.103 1665.6 386.307C1696.8 380.597 1739.34 386.935 1757.77 364.965C1776.21 342.995 1770.47 302.232 1770.68 270.519C1770.83 243.925 1746.3 221.635 1734.86 191.476C1725.67 167.221 1740.64 129.257 1724.58 104.405C1710.22 82.1255 1671.36 77.1716 1651.95 55.6613C1633.99 35.6989 1632.67 -2.45913 1610.69 -20.9046C1588.71 -39.3502 1560.4 -49.1409 1537.59 -63.388C1512.97 -78.7635 1481.23 -75.6065 1456.82 -85.9169C1429.59 -97.3864 1412.81 -140.326 1387.33 -145.16C1355.61 -151.156 1323.52 -124.647 1297.39 -119.856C1266.26 -114.151 1239.97 -106.956 1221.54 -84.9864C1203.11 -63.0167 1188.85 -35.9995 1188.64 -4.28684C1188.5 22.3076 1211.24 46.6672 1222.65 76.8584C1231.84 101.114 1228.11 133.283 1244.11 158.141C1258.47 180.42 1284.71 195.235 1304.13 216.805C1322.09 236.767 1345 251.214 1366.95 269.633L1366.98 269.601Z" stroke="white" stroke-linecap="round" stroke-linejoin="round"/>
<path d="M1345.31 295.432C1367.26 313.851 1377.67 346.351 1400.47 360.603C1425.08 375.983 1459.61 368.729 1484.01 379.049C1511.23 390.529 1532.98 408.337 1558.45 413.188C1590.14 419.203 1617.65 417.036 1643.82 412.266C1674.99 406.586 1717.51 412.951 1735.91 391.017C1754.32 369.082 1748.56 328.353 1748.74 296.671C1748.86 270.102 1724.33 247.813 1712.88 217.674C1703.68 193.434 1718.6 155.519 1702.54 130.677C1688.17 108.407 1649.33 103.427 1629.91 81.9217C1611.95 61.9639 1610.6 23.8409 1588.62 5.39541C1566.64 -13.0501 1538.34 -22.8541 1515.53 -37.1058C1490.93 -52.4863 1459.2 -49.3575 1434.8 -59.6775C1407.58 -71.1578 1390.78 -114.07 1365.31 -118.92C1333.61 -124.935 1301.56 -98.4765 1275.45 -93.7115C1244.34 -88.0366 1218.09 -80.8691 1199.68 -58.9348C1181.28 -37.0005 1167.05 -10.0202 1166.87 21.6623C1166.75 48.2315 1189.49 72.586 1200.92 102.758C1210.12 126.998 1206.39 159.166 1222.43 183.98C1236.8 206.25 1263.03 221.072 1282.45 242.637C1300.42 262.594 1323.33 277.046 1345.28 295.464L1345.31 295.432Z" stroke="white" stroke-linecap="round" stroke-linejoin="round"/>
<path d="M1323.25 321.714C1345.2 340.132 1355.59 372.655 1378.4 386.902C1403.02 402.278 1437.57 394.989 1461.98 405.299C1489.21 416.769 1510.96 434.577 1536.44 439.412C1568.16 445.407 1595.68 443.216 1621.87 438.421C1653.07 432.711 1695.61 439.048 1714.04 417.078C1732.48 395.108 1726.75 354.345 1726.95 322.633C1727.1 296.038 1702.57 273.749 1691.13 243.59C1681.94 219.334 1696.91 181.371 1680.85 156.518C1666.49 134.239 1627.63 129.285 1608.22 107.775C1590.26 87.8122 1588.94 49.6542 1566.96 31.2086C1544.98 12.7631 1516.67 2.97239 1493.86 -11.2747C1469.25 -26.6502 1437.5 -23.4932 1413.09 -33.8036C1385.86 -45.2731 1369.08 -88.2126 1343.6 -93.0472C1311.89 -99.0427 1279.8 -72.5334 1253.66 -67.7431C1222.5 -62.0058 1196.25 -54.8429 1177.81 -32.8731C1159.38 -10.9034 1145.12 16.1138 1144.92 47.8265C1144.77 74.4209 1167.51 98.7804 1178.92 128.972C1188.11 153.227 1184.38 185.396 1200.38 210.254C1214.74 232.533 1240.98 247.349 1260.4 268.918C1278.36 288.881 1301.28 303.328 1323.23 321.746L1323.25 321.714Z" stroke="white" stroke-linecap="round" stroke-linejoin="round"/>
<path d="M1301.58 347.545C1323.53 365.964 1333.94 398.464 1356.74 412.716C1381.35 428.096 1415.88 420.842 1440.28 431.162C1467.5 442.642 1489.25 460.451 1514.72 465.301C1546.42 471.316 1573.92 469.149 1600.09 464.379C1631.26 458.699 1673.78 465.064 1692.18 443.13C1710.59 421.195 1704.83 380.466 1705.01 348.784C1705.14 322.215 1680.6 299.927 1669.15 269.787C1659.95 245.547 1674.88 207.632 1658.81 182.79C1644.44 160.52 1605.6 155.54 1586.18 134.035C1568.22 114.077 1566.88 75.9542 1544.89 57.5087C1522.91 39.0632 1494.61 29.2592 1471.81 15.0075C1447.2 -0.373065 1415.47 2.75576 1391.07 -7.56422C1363.85 -19.0445 1347.05 -61.9567 1321.58 -66.807C1289.88 -72.822 1257.84 -46.3632 1231.72 -41.5982C1200.59 -35.8912 1174.36 -28.7558 1155.95 -6.8215C1137.55 15.1128 1123.32 42.0931 1123.14 73.7756C1123.02 100.345 1145.76 124.699 1157.19 154.871C1166.39 179.111 1162.67 211.279 1178.7 236.094C1193.07 258.363 1219.3 273.185 1238.72 294.75C1256.69 314.708 1279.6 329.159 1301.55 347.578L1301.58 347.545Z" stroke="white" stroke-linecap="round" stroke-linejoin="round"/>
<path d="M1279.53 373.827C1301.48 392.246 1311.87 424.768 1334.68 439.016C1359.29 454.391 1393.84 447.102 1418.25 457.413C1445.48 468.882 1467.23 486.69 1492.71 491.525C1524.43 497.52 1551.95 495.329 1578.15 490.534C1609.34 484.824 1651.88 491.161 1670.31 469.191C1688.75 447.222 1683.02 406.459 1683.23 374.746C1683.37 348.152 1658.84 325.862 1647.4 295.703C1638.22 271.447 1653.18 233.484 1637.13 208.631C1622.76 186.352 1583.9 181.398 1564.49 159.888C1546.53 139.925 1545.22 101.767 1523.23 83.3219C1501.25 64.8764 1472.94 55.0856 1450.13 40.8386C1425.52 25.463 1393.77 28.6201 1369.36 18.3097C1342.13 6.84017 1325.35 -36.0993 1299.87 -40.9339C1268.16 -46.9294 1236.07 -20.4201 1209.93 -15.6298C1178.77 -9.89257 1152.52 -2.72958 1134.08 19.2402C1115.65 41.2099 1101.4 68.2271 1101.19 99.9397C1101.04 126.534 1123.78 150.894 1135.19 181.085C1144.38 205.341 1140.63 237.542 1156.65 262.367C1171.02 284.647 1197.26 299.462 1216.67 321.032C1234.63 340.994 1257.55 355.441 1279.5 373.859L1279.53 373.827Z" stroke="white" stroke-linecap="round" stroke-linejoin="round"/>
<path d="M1307.28 340.746C1329.23 359.164 1339.66 391.642 1362.47 405.898C1387.07 421.284 1421.57 414.063 1445.96 424.393C1473.17 435.884 1494.92 453.693 1520.38 458.559C1552.06 464.594 1579.54 462.451 1605.69 457.706C1636.84 452.056 1679.33 458.449 1697.7 436.55C1716.08 414.651 1710.29 373.956 1710.45 342.304C1710.55 315.76 1686.02 293.474 1674.55 263.353C1665.33 239.129 1680.22 201.262 1664.15 176.43C1649.77 154.171 1610.95 149.164 1591.53 127.664C1573.56 107.711 1572.19 69.6229 1550.21 51.1773C1528.22 32.7318 1499.94 22.9146 1477.13 8.6583C1452.53 -6.72723 1420.83 -3.62661 1396.44 -13.9562C1369.22 -25.4473 1352.4 -68.3322 1326.94 -73.1981C1295.26 -79.2326 1263.26 -52.8245 1237.17 -48.0847C1206.06 -42.4079 1179.85 -35.3001 1161.47 -13.4013C1143.1 8.49763 1128.91 35.4411 1128.75 67.0933C1128.65 93.6372 1151.39 117.987 1162.84 148.139C1172.05 172.363 1168.36 204.498 1184.4 229.302C1198.78 251.562 1225.01 266.39 1244.43 287.95C1262.4 307.903 1285.31 322.359 1307.26 340.778L1307.28 340.746Z" stroke="white" stroke-linecap="round" stroke-linejoin="round"/>
<path d="M1285.64 366.541C1307.59 384.959 1318 417.459 1340.81 431.711C1365.41 447.092 1399.94 439.837 1424.34 450.157C1451.56 461.637 1473.31 479.446 1498.78 484.296C1530.48 490.311 1557.98 488.144 1584.15 483.374C1615.32 477.694 1657.84 484.059 1676.24 462.125C1694.65 440.191 1688.89 399.462 1689.07 367.779C1689.2 341.21 1664.66 318.922 1653.21 288.782C1644.01 264.542 1658.94 226.627 1642.87 201.785C1628.5 179.515 1589.66 174.535 1570.25 153.03C1552.28 133.072 1550.94 94.9493 1528.95 76.5038C1506.97 58.0583 1478.67 48.2543 1455.87 34.0026C1431.26 18.6221 1399.53 21.7509 1375.13 11.4309C1347.91 -0.0493995 1331.11 -42.9616 1305.64 -47.8119C1273.95 -53.8269 1241.9 -27.3681 1215.79 -22.6031C1184.65 -16.8961 1158.42 -9.7607 1140.01 12.1736C1121.61 34.1079 1107.39 61.0882 1107.2 92.7707C1107.08 119.34 1129.82 143.694 1141.25 173.866C1150.45 198.106 1146.73 230.274 1162.76 255.089C1177.13 277.358 1203.37 292.18 1222.79 313.745C1240.75 333.703 1263.66 348.154 1285.61 366.573L1285.64 366.541Z" stroke="white" stroke-linecap="round" stroke-linejoin="round"/>
<path d="M1263.59 392.822C1285.54 411.24 1295.93 443.763 1318.74 458.01C1343.35 473.386 1377.91 466.097 1402.31 476.407C1429.55 487.877 1451.29 505.685 1476.77 510.519C1508.49 516.515 1536.02 514.324 1562.21 509.529C1593.4 503.818 1635.94 510.156 1654.38 488.186C1672.81 466.216 1667.08 425.453 1667.29 393.741C1667.43 367.146 1642.9 344.856 1631.46 314.697C1622.28 290.442 1637.24 252.479 1621.19 227.626C1606.82 205.347 1567.96 200.393 1548.55 178.882C1530.59 158.92 1529.28 120.762 1507.3 102.317C1485.31 83.871 1457 74.0803 1434.19 59.8332C1409.58 44.4577 1377.83 47.6147 1353.42 37.3043C1326.19 25.8348 1309.42 -17.1047 1283.93 -21.9393C1252.22 -27.9348 1220.13 -1.4255 1194 3.36481C1162.83 9.10205 1136.58 16.265 1118.15 38.2348C1099.71 60.2045 1085.46 87.2217 1085.25 118.934C1085.1 145.529 1107.84 169.888 1119.26 200.08C1128.44 224.335 1124.72 256.504 1140.71 281.362C1155.08 303.641 1181.32 318.456 1200.73 340.026C1218.69 359.989 1241.61 374.436 1263.56 392.854L1263.59 392.822Z" stroke="white" stroke-linecap="round" stroke-linejoin="round"/>
</g>
<path d="M578.733 326.526C584.687 326.526 589.827 327.694 594.151 330.028C598.476 332.303 601.706 335.595 603.84 339.905C606.031 344.155 606.986 349.123 606.705 354.809C606.368 361.693 604.542 367.768 601.229 373.036C597.971 378.244 593.562 382.284 588.001 385.157C582.441 388.03 576.122 389.467 569.045 389.467H542L553.711 326.526H578.733ZM586.569 355.079C586.569 351.308 585.614 348.315 583.704 346.1C581.851 343.825 579.267 342.688 575.953 342.688H570.224L564.579 373.305H572.583C575.223 373.305 577.61 372.557 579.744 371.061C581.879 369.504 583.536 367.349 584.715 364.596C585.951 361.783 586.569 358.61 586.569 355.079ZM647.332 389.467L645.815 380.578H623.657L619.192 389.467H599.308L634.02 326.526H654.072L668.31 389.467H647.332ZM631.071 365.673H643.372L640.254 347.357L631.071 365.673ZM708.944 325.18C714.729 325.18 719.841 326.467 724.278 329.04C728.771 331.554 732.254 335.056 734.725 339.545C737.196 344.035 738.432 349.153 738.432 354.899C738.432 361.663 736.859 367.798 733.714 373.305C730.569 378.752 726.272 383.062 720.824 386.235C715.375 389.347 709.337 390.903 702.71 390.903C696.924 390.903 691.785 389.617 687.292 387.043C682.854 384.469 679.4 380.907 676.929 376.358C674.457 371.809 673.222 366.661 673.222 360.915C673.222 354.151 674.794 348.045 677.94 342.598C681.085 337.151 685.382 332.901 690.83 329.848C696.278 326.736 702.316 325.18 708.944 325.18ZM707.512 342.508C705.097 342.508 702.794 343.257 700.603 344.753C698.469 346.25 696.728 348.315 695.38 350.948C694.032 353.522 693.358 356.366 693.358 359.478C693.358 362.112 693.863 364.506 694.874 366.661C695.885 368.816 697.233 370.522 698.918 371.779C700.659 372.976 702.541 373.575 704.563 373.575C706.978 373.575 709.225 372.826 711.303 371.33C713.437 369.774 715.123 367.679 716.358 365.045C717.65 362.411 718.296 359.508 718.296 356.336C718.296 352.325 717.257 349.033 715.179 346.459C713.157 343.825 710.601 342.508 707.512 342.508ZM771.091 325C775.697 325 780.218 325.688 784.656 327.065C789.093 328.442 792.912 330.267 796.114 332.542L787.436 348.434C784.459 346.459 781.061 344.723 777.241 343.227C773.478 341.73 770.361 340.982 767.89 340.982C766.71 340.982 765.755 341.221 765.025 341.7C764.351 342.179 764.014 342.927 764.014 343.945C764.014 345.262 764.716 346.309 766.12 347.088C767.581 347.866 769.855 348.704 772.945 349.602C776.764 350.799 779.909 351.996 782.381 353.193C784.908 354.39 787.099 356.216 788.952 358.67C790.806 361.124 791.733 364.357 791.733 368.367C791.733 373.275 790.497 377.435 788.026 380.847C785.61 384.199 782.353 386.684 778.252 388.3C774.208 389.916 769.743 390.724 764.857 390.724C759.633 390.724 754.437 389.826 749.27 388.03C744.159 386.175 739.806 383.661 736.211 380.488L744.973 364.776C747.669 367.529 751.152 369.893 755.42 371.869C759.745 373.784 763.424 374.742 766.457 374.742C768.03 374.742 769.266 374.443 770.164 373.844C771.063 373.186 771.512 372.228 771.512 370.971C771.512 369.594 770.782 368.547 769.322 367.828C767.861 367.05 765.531 366.212 762.329 365.314C758.566 364.237 755.42 363.129 752.893 361.992C750.422 360.855 748.259 359.119 746.406 356.785C744.608 354.39 743.709 351.278 743.709 347.447C743.709 342.957 744.861 339.007 747.164 335.595C749.467 332.183 752.668 329.579 756.768 327.783C760.925 325.928 765.699 325 771.091 325ZM794.799 364.506C795.641 359.538 797.326 355.079 799.854 351.128C802.438 347.177 805.527 344.095 809.121 341.88C812.716 339.605 816.367 338.468 820.074 338.468C822.601 338.468 824.764 338.857 826.561 339.635C828.358 340.354 829.875 341.581 831.11 343.317L831.869 338.827H850.488L831.869 445H813.586L824.37 383.9C822.292 385.995 820.242 387.551 818.22 388.569C816.198 389.527 813.979 390.006 811.564 390.006C808.307 390.006 805.358 389.198 802.718 387.581C800.135 385.905 798.085 383.571 796.568 380.578C795.052 377.525 794.293 373.994 794.293 369.983C794.293 368.187 794.462 366.362 794.799 364.506ZM827.656 364.147C827.769 363.608 827.825 362.89 827.825 361.992C827.825 359.837 827.235 358.251 826.055 357.233C824.932 356.216 823.64 355.707 822.18 355.707C820.495 355.707 818.782 356.455 817.041 357.952C815.355 359.388 814.26 361.573 813.755 364.506C813.642 365.464 813.586 366.122 813.586 366.481C813.586 368.696 814.148 370.282 815.271 371.24C816.451 372.198 817.799 372.677 819.315 372.677C821.057 372.677 822.742 371.988 824.37 370.612C826.055 369.235 827.151 367.08 827.656 364.147ZM867.566 390.185C864.589 390.185 861.977 389.497 859.731 388.12C857.484 386.743 855.715 384.828 854.423 382.374C853.187 379.92 852.569 377.136 852.569 374.024C852.569 372.707 852.71 371.21 852.99 369.534L858.467 340.354H877.423L872.537 366.481C872.424 367.32 872.368 367.948 872.368 368.367C872.368 369.923 872.733 371.15 873.463 372.048C874.25 372.886 875.317 373.305 876.665 373.305C878.462 373.305 880.119 372.467 881.636 370.791C883.209 369.055 884.22 366.9 884.669 364.327L889.134 340.354H908.091L898.992 389.467H880.035L881.13 383.361C877.367 387.911 872.846 390.185 867.566 390.185ZM926.418 390.185C923.104 390.185 920.155 389.287 917.572 387.492C914.988 385.696 912.966 383.182 911.506 379.95C910.101 376.717 909.399 373.036 909.399 368.906C909.399 363.519 910.438 358.61 912.517 354.181C914.651 349.691 917.516 346.16 921.11 343.586C924.761 340.952 928.777 339.635 933.158 339.635C936.079 339.635 938.635 340.264 940.825 341.521C943.072 342.718 944.841 344.484 946.133 346.818L947.312 340.354H966.269L957.086 389.467H938.129L939.056 384.618C935.236 388.33 931.024 390.185 926.418 390.185ZM934.169 375.101C935.686 375.101 937.09 374.592 938.382 373.575C939.73 372.497 940.769 371.091 941.499 369.355C942.285 367.559 942.679 365.643 942.679 363.608C942.679 361.334 942.145 359.538 941.078 358.221C940.011 356.844 938.578 356.156 936.781 356.156C934.478 356.156 932.512 357.293 930.883 359.568C929.311 361.783 928.524 364.446 928.524 367.559C928.524 369.953 929.002 371.809 929.957 373.126C930.968 374.443 932.372 375.101 934.169 375.101ZM993.434 346.728C997.478 341.88 1002.42 339.456 1008.26 339.456L1006.07 357.593C1004.95 357.413 1003.91 357.323 1002.95 357.323C999.528 357.323 996.58 358.221 994.108 360.017C991.693 361.753 990.233 364.027 989.727 366.841H989.643L985.43 389.467H966.474L975.657 340.354H994.614L993.434 346.728ZM1032.85 339.725C1037.68 339.725 1041.89 340.683 1045.49 342.598C1049.08 344.454 1051.83 347.117 1053.74 350.589C1055.71 354.001 1056.69 357.952 1056.69 362.441C1056.69 364.656 1056.44 366.99 1055.93 369.444H1025.44C1026.05 373.395 1028.47 375.37 1032.68 375.37C1035.88 375.37 1038.97 374.143 1041.95 371.689L1051.72 381.925C1046.27 387.372 1039.7 390.095 1032.01 390.095C1026.9 390.095 1022.43 389.198 1018.61 387.402C1014.85 385.606 1011.93 383.032 1009.85 379.68C1007.83 376.328 1006.82 372.437 1006.82 368.008C1006.82 362.621 1007.91 357.772 1010.1 353.462C1012.35 349.153 1015.44 345.801 1019.37 343.406C1023.36 340.952 1027.85 339.725 1032.85 339.725ZM1038.33 360.107C1038.61 359.328 1038.75 358.64 1038.75 358.042C1038.75 356.725 1038.33 355.617 1037.48 354.719C1036.64 353.822 1035.55 353.373 1034.2 353.373C1032.74 353.373 1031.33 354.001 1029.99 355.258C1028.69 356.455 1027.63 358.071 1026.78 360.107H1038.33Z" fill="white"/>
<path d="M859.215 402.333V433.364H854.533V402.333H859.215Z" fill="white"/>
<path d="M870.2 419.545V433.364H865.67V410.091H870.018V413.879H870.306C870.841 412.646 871.68 411.657 872.821 410.909C873.973 410.162 875.422 409.788 877.17 409.788C878.756 409.788 880.144 410.121 881.336 410.788C882.528 411.444 883.453 412.424 884.109 413.727C884.766 415.03 885.094 416.641 885.094 418.561V433.364H880.564V419.106C880.564 417.419 880.124 416.101 879.245 415.152C878.367 414.192 877.16 413.712 875.624 413.712C874.574 413.712 873.639 413.939 872.821 414.394C872.013 414.848 871.372 415.515 870.897 416.394C870.432 417.263 870.2 418.313 870.2 419.545Z" fill="white"/>
<path d="M900.973 433.833C898.72 433.833 896.781 433.323 895.155 432.303C893.538 431.273 892.296 429.854 891.427 428.045C890.559 426.237 890.124 424.167 890.124 421.833C890.124 419.47 890.569 417.384 891.458 415.576C892.346 413.758 893.599 412.338 895.215 411.318C896.831 410.298 898.735 409.788 900.927 409.788C902.695 409.788 904.271 410.116 905.655 410.773C907.038 411.419 908.155 412.328 909.003 413.5C909.862 414.672 910.372 416.04 910.533 417.606H906.124C905.882 416.515 905.326 415.576 904.458 414.788C903.599 414 902.447 413.606 901.003 413.606C899.74 413.606 898.634 413.939 897.685 414.606C896.745 415.263 896.013 416.202 895.488 417.424C894.963 418.636 894.7 420.071 894.7 421.727C894.7 423.424 894.958 424.889 895.473 426.121C895.988 427.354 896.715 428.308 897.655 428.985C898.604 429.662 899.72 430 901.003 430C901.862 430 902.639 429.843 903.336 429.53C904.043 429.207 904.634 428.747 905.109 428.152C905.594 427.556 905.932 426.838 906.124 426H910.533C910.372 427.505 909.882 428.848 909.064 430.03C908.245 431.212 907.15 432.141 905.776 432.818C904.412 433.495 902.811 433.833 900.973 433.833Z" fill="white"/>
<path d="M930.12 423.712V410.091H934.666V433.364H930.211V429.333H929.969C929.434 430.576 928.575 431.611 927.393 432.439C926.221 433.258 924.762 433.667 923.014 433.667C921.519 433.667 920.196 433.338 919.045 432.682C917.903 432.015 917.004 431.03 916.348 429.727C915.701 428.424 915.378 426.813 915.378 424.894V410.091H919.908V424.348C919.908 425.934 920.348 427.197 921.227 428.136C922.105 429.076 923.247 429.545 924.651 429.545C925.499 429.545 926.343 429.333 927.181 428.909C928.03 428.485 928.732 427.843 929.287 426.985C929.853 426.126 930.131 425.035 930.12 423.712Z" fill="white"/>
<path d="M941.117 433.364V402.333H945.647V413.864H945.92C946.182 413.379 946.561 412.818 947.056 412.182C947.551 411.545 948.238 410.99 949.117 410.515C949.995 410.03 951.157 409.788 952.602 409.788C954.48 409.788 956.157 410.263 957.632 411.212C959.107 412.162 960.263 413.53 961.102 415.318C961.95 417.106 962.374 419.258 962.374 421.773C962.374 424.288 961.955 426.444 961.117 428.242C960.278 430.03 959.127 431.409 957.662 432.379C956.197 433.338 954.526 433.818 952.647 433.818C951.233 433.818 950.076 433.581 949.177 433.106C948.288 432.631 947.591 432.076 947.086 431.439C946.581 430.803 946.192 430.237 945.92 429.742H945.541V433.364H941.117ZM945.556 421.727C945.556 423.364 945.793 424.798 946.268 426.03C946.743 427.263 947.43 428.227 948.329 428.924C949.228 429.611 950.329 429.955 951.632 429.955C952.985 429.955 954.117 429.596 955.026 428.879C955.935 428.152 956.622 427.167 957.086 425.924C957.561 424.682 957.799 423.283 957.799 421.727C957.799 420.192 957.566 418.813 957.102 417.591C956.647 416.369 955.96 415.404 955.041 414.697C954.132 413.99 952.995 413.636 951.632 413.636C950.319 413.636 949.208 413.975 948.299 414.652C947.4 415.328 946.718 416.273 946.253 417.485C945.788 418.697 945.556 420.111 945.556 421.727Z" fill="white"/>
<path d="M974.234 433.879C972.759 433.879 971.426 433.606 970.234 433.061C969.042 432.505 968.098 431.702 967.401 430.652C966.714 429.601 966.37 428.313 966.37 426.788C966.37 425.475 966.623 424.394 967.128 423.545C967.633 422.697 968.315 422.025 969.174 421.53C970.032 421.035 970.992 420.662 972.052 420.409C973.113 420.157 974.194 419.965 975.295 419.833C976.689 419.672 977.82 419.54 978.689 419.439C979.557 419.328 980.189 419.152 980.583 418.909C980.977 418.667 981.174 418.273 981.174 417.727V417.621C981.174 416.298 980.8 415.273 980.052 414.545C979.315 413.818 978.214 413.455 976.749 413.455C975.224 413.455 974.022 413.793 973.143 414.47C972.274 415.136 971.674 415.879 971.34 416.697L967.083 415.727C967.588 414.313 968.325 413.172 969.295 412.303C970.275 411.424 971.401 410.788 972.674 410.394C973.946 409.99 975.285 409.788 976.689 409.788C977.618 409.788 978.603 409.899 979.643 410.121C980.694 410.333 981.674 410.727 982.583 411.303C983.502 411.879 984.254 412.702 984.84 413.773C985.426 414.833 985.719 416.212 985.719 417.909V433.364H981.295V430.182H981.113C980.82 430.768 980.381 431.343 979.795 431.909C979.209 432.475 978.456 432.944 977.537 433.318C976.618 433.692 975.517 433.879 974.234 433.879ZM975.219 430.242C976.471 430.242 977.542 429.995 978.431 429.5C979.33 429.005 980.012 428.359 980.477 427.561C980.951 426.753 981.189 425.889 981.189 424.97V421.97C981.027 422.131 980.714 422.283 980.249 422.424C979.795 422.556 979.275 422.672 978.689 422.773C978.103 422.864 977.532 422.95 976.977 423.03C976.421 423.101 975.956 423.162 975.583 423.212C974.704 423.323 973.901 423.51 973.174 423.773C972.456 424.035 971.881 424.414 971.446 424.909C971.022 425.394 970.81 426.04 970.81 426.848C970.81 427.97 971.224 428.818 972.052 429.394C972.881 429.96 973.936 430.242 975.219 430.242Z" fill="white"/>
<path d="M1002.62 410.091V413.727H989.905V410.091H1002.62ZM993.314 404.515H997.844V426.53C997.844 427.409 997.975 428.071 998.238 428.515C998.501 428.95 998.839 429.247 999.253 429.409C999.677 429.561 1000.14 429.636 1000.63 429.636C1001 429.636 1001.31 429.611 1001.59 429.561C1001.86 429.51 1002.07 429.47 1002.22 429.439L1003.04 433.182C1002.78 433.283 1002.4 433.384 1001.92 433.485C1001.43 433.596 1000.83 433.657 1000.1 433.667C998.91 433.687 997.798 433.475 996.768 433.03C995.738 432.586 994.905 431.899 994.268 430.97C993.632 430.04 993.314 428.874 993.314 427.47V404.515Z" fill="white"/>
<path d="M1017.18 433.833C1015 433.833 1013.1 433.333 1011.47 432.333C1009.84 431.333 1008.58 429.934 1007.68 428.136C1006.78 426.338 1006.33 424.237 1006.33 421.833C1006.33 419.419 1006.78 417.308 1007.68 415.5C1008.58 413.692 1009.84 412.288 1011.47 411.288C1013.1 410.288 1015 409.788 1017.18 409.788C1019.36 409.788 1021.27 410.288 1022.89 411.288C1024.52 412.288 1025.78 413.692 1026.68 415.5C1027.58 417.308 1028.03 419.419 1028.03 421.833C1028.03 424.237 1027.58 426.338 1026.68 428.136C1025.78 429.934 1024.52 431.333 1022.89 432.333C1021.27 433.333 1019.36 433.833 1017.18 433.833ZM1017.2 430.03C1018.61 430.03 1019.78 429.657 1020.71 428.909C1021.64 428.162 1022.33 427.167 1022.77 425.924C1023.23 424.682 1023.45 423.313 1023.45 421.818C1023.45 420.333 1023.23 418.97 1022.77 417.727C1022.33 416.475 1021.64 415.47 1020.71 414.712C1019.78 413.955 1018.61 413.576 1017.2 413.576C1015.77 413.576 1014.59 413.955 1013.65 414.712C1012.72 415.47 1012.03 416.475 1011.58 417.727C1011.13 418.97 1010.91 420.333 1010.91 421.818C1010.91 423.313 1011.13 424.682 1011.58 425.924C1012.03 427.167 1012.72 428.162 1013.65 428.909C1014.59 429.657 1015.77 430.03 1017.2 430.03Z" fill="white"/>
<path d="M1033.09 433.364V410.091H1037.47V413.788H1037.71C1038.13 412.535 1038.88 411.551 1039.95 410.833C1041.03 410.106 1042.25 409.742 1043.62 409.742C1043.9 409.742 1044.23 409.753 1044.62 409.773C1045.01 409.793 1045.32 409.818 1045.54 409.848V414.182C1045.36 414.131 1045.04 414.076 1044.57 414.015C1044.11 413.944 1043.64 413.909 1043.18 413.909C1042.11 413.909 1041.15 414.136 1040.31 414.591C1039.49 415.035 1038.83 415.657 1038.34 416.455C1037.86 417.242 1037.62 418.141 1037.62 419.152V433.364H1033.09Z" fill="white"/>
<path d="M542 408.733H799.6V429.533H542V408.733Z" fill="white"/>
</g>
<defs>
<linearGradient id="paint0_linear_14414_46772" x1="800" y1="0" x2="800" y2="800" gradientUnits="userSpaceOnUse">
<stop stop-color="#303030"/>
<stop offset="1" stop-color="#1A1A1A"/>
</linearGradient>
<clipPath id="clip0_14414_46772">
<rect width="1600" height="800" fill="white"/>
</clipPath>
</defs>
</svg>
